<svg width="564" height="345" viewBox="0 0 564 345" fill="none" xmlns="http://www.w3.org/2000/svg">
<rect x="0.5" y="22.5" width="563" height="322" rx="15.5" fill="white" fill-opacity="0.1" stroke="white"/>
<rect x="15" width="150" height="44" rx="16" fill="#FD4646"/>
<path d="M38.4304 14.4545V29H35.7741L29.446 19.8452H29.3395V29H26.2642V14.4545H28.9631L35.2415 23.6023H35.3693V14.4545H38.4304ZM44.0252 29.206C43.3292 29.206 42.7089 29.0852 42.1644 28.8438C41.6199 28.5975 41.189 28.2353 40.8718 27.7571C40.5593 27.2741 40.4031 26.6728 40.4031 25.9531C40.4031 25.3471 40.5143 24.8381 40.7369 24.4261C40.9594 24.0142 41.2624 23.6828 41.646 23.4318C42.0295 23.1809 42.4651 22.9915 42.9528 22.8636C43.4452 22.7358 43.9613 22.6458 44.5011 22.5938C45.1355 22.5275 45.6469 22.4659 46.0352 22.4091C46.4234 22.3475 46.7051 22.2576 46.8803 22.1392C47.0555 22.0208 47.1431 21.8456 47.1431 21.6136V21.571C47.1431 21.1212 47.0011 20.7732 46.717 20.527C46.4376 20.2808 46.0399 20.1577 45.5238 20.1577C44.9793 20.1577 44.546 20.2784 44.2241 20.5199C43.9021 20.7566 43.689 21.0549 43.5849 21.4148L40.7866 21.1875C40.9286 20.5246 41.208 19.9517 41.6246 19.4688C42.0413 18.9811 42.5787 18.607 43.2369 18.3466C43.8997 18.0814 44.6668 17.9489 45.538 17.9489C46.1441 17.9489 46.7241 18.0199 47.2781 18.1619C47.8368 18.304 48.3316 18.5241 48.7624 18.8224C49.198 19.1207 49.5413 19.5043 49.7923 19.973C50.0432 20.437 50.1687 20.9934 50.1687 21.642V29H47.2994V27.4872H47.2141C47.0389 27.8281 46.8046 28.1288 46.511 28.3892C46.2174 28.6449 45.8647 28.8461 45.4528 28.9929C45.0408 29.1349 44.565 29.206 44.0252 29.206ZM44.8917 27.1179C45.3368 27.1179 45.7298 27.0303 46.0707 26.8551C46.4116 26.6752 46.6791 26.4337 46.8732 26.1307C47.0674 25.8277 47.1644 25.4844 47.1644 25.1009V23.9432C47.0697 24.0047 46.9395 24.0616 46.7738 24.1136C46.6128 24.161 46.4305 24.206 46.2269 24.2486C46.0233 24.2865 45.8197 24.322 45.6161 24.3551C45.4125 24.3835 45.2279 24.4096 45.0621 24.4332C44.707 24.4853 44.3969 24.5682 44.1317 24.6818C43.8666 24.7955 43.6606 24.9493 43.5138 25.1435C43.3671 25.3329 43.2937 25.5696 43.2937 25.8537C43.2937 26.2656 43.4428 26.5805 43.7411 26.7983C44.0442 27.0114 44.4277 27.1179 44.8917 27.1179ZM43.6204 16.7486L41.9371 16.7273C41.9371 15.8229 42.1597 15.1293 42.6048 14.6463C43.0546 14.1634 43.6014 13.9195 44.2454 13.9148C44.5768 13.9148 44.8609 13.9692 45.0977 14.0781C45.3391 14.1823 45.5546 14.3054 45.744 14.4474C45.9381 14.5895 46.1228 14.715 46.2979 14.8239C46.4731 14.928 46.6625 14.9801 46.8661 14.9801C47.1407 14.9754 47.3491 14.8736 47.4911 14.6747C47.6379 14.4711 47.7113 14.206 47.7113 13.8793L49.3661 13.929C49.3567 14.8239 49.1294 15.5152 48.6843 16.0028C48.2392 16.4858 47.6971 16.7296 47.0579 16.7344C46.7028 16.7344 46.4045 16.6823 46.163 16.5781C45.9263 16.4692 45.7179 16.3461 45.538 16.2088C45.3581 16.0668 45.1829 15.9413 45.0124 15.8324C44.842 15.7235 44.6502 15.669 44.4371 15.669C44.1909 15.669 43.9921 15.7661 43.8406 15.9602C43.6938 16.1544 43.6204 16.4171 43.6204 16.7486ZM57.445 29.2131C56.3417 29.2131 55.3877 28.9787 54.5827 28.5099C53.7826 28.0365 53.1647 27.3783 52.729 26.5355C52.2934 25.688 52.0756 24.7055 52.0756 23.5881C52.0756 22.4612 52.2934 21.4763 52.729 20.6335C53.1647 19.786 53.7826 19.1278 54.5827 18.6591C55.3877 18.1856 56.3417 17.9489 57.445 17.9489C58.5482 17.9489 59.4999 18.1856 60.3001 18.6591C61.105 19.1278 61.7253 19.786 62.1609 20.6335C62.5965 21.4763 62.8143 22.4612 62.8143 23.5881C62.8143 24.7055 62.5965 25.688 62.1609 26.5355C61.7253 27.3783 61.105 28.0365 60.3001 28.5099C59.4999 28.9787 58.5482 29.2131 57.445 29.2131ZM57.4592 26.8693C57.9611 26.8693 58.3801 26.7273 58.7163 26.4432C59.0524 26.1544 59.3058 25.7614 59.4762 25.2642C59.6514 24.767 59.739 24.2012 59.739 23.5668C59.739 22.9323 59.6514 22.3665 59.4762 21.8693C59.3058 21.3722 59.0524 20.9792 58.7163 20.6903C58.3801 20.4015 57.9611 20.2571 57.4592 20.2571C56.9525 20.2571 56.5264 20.4015 56.1808 20.6903C55.8398 20.9792 55.5818 21.3722 55.4066 21.8693C55.2362 22.3665 55.1509 22.9323 55.1509 23.5668C55.1509 24.2012 55.2362 24.767 55.4066 25.2642C55.5818 25.7614 55.8398 26.1544 56.1808 26.4432C56.5264 26.7273 56.9525 26.8693 57.4592 26.8693ZM76.4062 24.3551V18.0909H79.4318V29H76.527V27.0185H76.4134C76.1671 27.6577 75.7576 28.1714 75.1847 28.5597C74.6165 28.9479 73.9228 29.142 73.1037 29.142C72.3745 29.142 71.733 28.9763 71.179 28.6449C70.625 28.3134 70.1918 27.8423 69.8793 27.2315C69.5715 26.6207 69.4152 25.8892 69.4105 25.0369V18.0909H72.4361V24.4972C72.4408 25.1411 72.6136 25.6501 72.9545 26.0241C73.2955 26.3982 73.7524 26.5852 74.3253 26.5852C74.6899 26.5852 75.0308 26.5024 75.348 26.3366C75.6652 26.1662 75.9209 25.9152 76.1151 25.5838C76.3139 25.2524 76.411 24.8428 76.4062 24.3551ZM90.9286 21.2017L88.1587 21.3722C88.1114 21.1354 88.0096 20.9223 87.8533 20.733C87.6971 20.5388 87.4911 20.3849 87.2354 20.2713C86.9845 20.1529 86.6838 20.0938 86.3335 20.0938C85.8647 20.0938 85.4693 20.1932 85.1474 20.392C84.8254 20.5862 84.6644 20.8466 84.6644 21.1733C84.6644 21.4337 84.7686 21.6539 84.9769 21.8338C85.1853 22.0137 85.5427 22.1581 86.0494 22.267L88.0238 22.6648C89.0844 22.8826 89.8751 23.233 90.396 23.7159C90.9168 24.1989 91.1772 24.8333 91.1772 25.6193C91.1772 26.3343 90.9665 26.9616 90.5451 27.5014C90.1284 28.0412 89.5555 28.4626 88.8263 28.7656C88.1019 29.0639 87.2662 29.2131 86.3192 29.2131C84.8751 29.2131 83.7246 28.9124 82.8675 28.3111C82.0153 27.705 81.5157 26.8812 81.369 25.8395L84.3448 25.6832C84.4348 26.1236 84.6526 26.4598 84.9982 26.6918C85.3439 26.919 85.7866 27.0327 86.3263 27.0327C86.8567 27.0327 87.2828 26.9309 87.6048 26.7273C87.9315 26.5189 88.0972 26.2514 88.1019 25.9247C88.0972 25.6501 87.9812 25.4252 87.7539 25.25C87.5266 25.0701 87.1763 24.9328 86.7028 24.8381L84.8136 24.4616C83.7482 24.2486 82.9551 23.8793 82.4343 23.3537C81.9182 22.8281 81.6602 22.1581 81.6602 21.3438C81.6602 20.643 81.8496 20.0393 82.2283 19.5327C82.6119 19.026 83.1493 18.6354 83.8406 18.3608C84.5366 18.0862 85.351 17.9489 86.2837 17.9489C87.6616 17.9489 88.7459 18.2401 89.5366 18.8224C90.332 19.4048 90.796 20.1979 90.9286 21.2017ZM98.054 29.2131C96.9318 29.2131 95.9659 28.9858 95.1562 28.5312C94.3513 28.072 93.7311 27.4233 93.2955 26.5852C92.8598 25.7424 92.642 24.7457 92.642 23.5952C92.642 22.473 92.8598 21.4882 93.2955 20.6406C93.7311 19.7931 94.3442 19.1326 95.1349 18.6591C95.9304 18.1856 96.8632 17.9489 97.9332 17.9489C98.6529 17.9489 99.3229 18.0649 99.9432 18.2969C100.568 18.5241 101.113 18.8674 101.577 19.3267C102.045 19.786 102.41 20.3636 102.67 21.0597C102.931 21.7509 103.061 22.5606 103.061 23.4886V24.3196H93.8494V22.4446H100.213C100.213 22.009 100.118 21.6231 99.929 21.2869C99.7396 20.9508 99.4768 20.688 99.1406 20.4986C98.8092 20.3045 98.4233 20.2074 97.983 20.2074C97.5237 20.2074 97.1165 20.3139 96.7614 20.527C96.411 20.7353 96.1364 21.017 95.9375 21.3722C95.7386 21.7225 95.6368 22.1132 95.6321 22.544V24.3267C95.6321 24.8665 95.7315 25.3329 95.9304 25.7259C96.134 26.1188 96.4205 26.4219 96.7898 26.6349C97.1591 26.848 97.5971 26.9545 98.1037 26.9545C98.4399 26.9545 98.7476 26.9072 99.027 26.8125C99.3063 26.7178 99.5455 26.5758 99.7443 26.3864C99.9432 26.197 100.095 25.965 100.199 25.6903L102.997 25.875C102.855 26.5473 102.564 27.1345 102.124 27.6364C101.688 28.1335 101.125 28.5218 100.433 28.8011C99.7467 29.0758 98.9536 29.2131 98.054 29.2131ZM109.664 29V18.0909H112.69V29H109.664ZM111.184 16.6847C110.734 16.6847 110.349 16.5355 110.027 16.2372C109.709 15.9342 109.551 15.572 109.551 15.1506C109.551 14.7339 109.709 14.3764 110.027 14.0781C110.349 13.7751 110.734 13.6236 111.184 13.6236C111.634 13.6236 112.018 13.7751 112.335 14.0781C112.657 14.3764 112.818 14.7339 112.818 15.1506C112.818 15.572 112.657 15.9342 112.335 16.2372C112.018 16.5355 111.634 16.6847 111.184 16.6847ZM124.19 21.2017L121.42 21.3722C121.373 21.1354 121.271 20.9223 121.115 20.733C120.959 20.5388 120.753 20.3849 120.497 20.2713C120.246 20.1529 119.946 20.0938 119.595 20.0938C119.126 20.0938 118.731 20.1932 118.409 20.392C118.087 20.5862 117.926 20.8466 117.926 21.1733C117.926 21.4337 118.03 21.6539 118.239 21.8338C118.447 22.0137 118.804 22.1581 119.311 22.267L121.286 22.6648C122.346 22.8826 123.137 23.233 123.658 23.7159C124.179 24.1989 124.439 24.8333 124.439 25.6193C124.439 26.3343 124.228 26.9616 123.807 27.5014C123.39 28.0412 122.817 28.4626 122.088 28.7656C121.364 29.0639 120.528 29.2131 119.581 29.2131C118.137 29.2131 116.986 28.9124 116.129 28.3111C115.277 27.705 114.777 26.8812 114.631 25.8395L117.607 25.6832C117.696 26.1236 117.914 26.4598 118.26 26.6918C118.606 26.919 119.048 27.0327 119.588 27.0327C120.118 27.0327 120.545 26.9309 120.866 26.7273C121.193 26.5189 121.359 26.2514 121.364 25.9247C121.359 25.6501 121.243 25.4252 121.016 25.25C120.788 25.0701 120.438 24.9328 119.964 24.8381L118.075 24.4616C117.01 24.2486 116.217 23.8793 115.696 23.3537C115.18 22.8281 114.922 22.1581 114.922 21.3438C114.922 20.643 115.111 20.0393 115.49 19.5327C115.874 19.026 116.411 18.6354 117.102 18.3608C117.798 18.0862 118.613 17.9489 119.545 17.9489C120.923 17.9489 122.008 18.2401 122.798 18.8224C123.594 19.4048 124.058 20.1979 124.19 21.2017ZM135.421 21.2017L132.651 21.3722C132.604 21.1354 132.502 20.9223 132.346 20.733C132.189 20.5388 131.983 20.3849 131.728 20.2713C131.477 20.1529 131.176 20.0938 130.826 20.0938C130.357 20.0938 129.962 20.1932 129.64 20.392C129.318 20.5862 129.157 20.8466 129.157 21.1733C129.157 21.4337 129.261 21.6539 129.469 21.8338C129.677 22.0137 130.035 22.1581 130.542 22.267L132.516 22.6648C133.577 22.8826 134.367 23.233 134.888 23.7159C135.409 24.1989 135.669 24.8333 135.669 25.6193C135.669 26.3343 135.459 26.9616 135.037 27.5014C134.621 28.0412 134.048 28.4626 133.319 28.7656C132.594 29.0639 131.758 29.2131 130.811 29.2131C129.367 29.2131 128.217 28.9124 127.36 28.3111C126.507 27.705 126.008 26.8812 125.861 25.8395L128.837 25.6832C128.927 26.1236 129.145 26.4598 129.49 26.6918C129.836 26.919 130.279 27.0327 130.819 27.0327C131.349 27.0327 131.775 26.9309 132.097 26.7273C132.424 26.5189 132.589 26.2514 132.594 25.9247C132.589 25.6501 132.473 25.4252 132.246 25.25C132.019 25.0701 131.668 24.9328 131.195 24.8381L129.306 24.4616C128.24 24.2486 127.447 23.8793 126.926 23.3537C126.41 22.8281 126.152 22.1581 126.152 21.3438C126.152 20.643 126.342 20.0393 126.721 19.5327C127.104 19.026 127.641 18.6354 128.333 18.3608C129.029 18.0862 129.843 17.9489 130.776 17.9489C132.154 17.9489 133.238 18.2401 134.029 18.8224C134.824 19.4048 135.288 20.1979 135.421 21.2017ZM142.504 29.2131C141.4 29.2131 140.446 28.9787 139.641 28.5099C138.841 28.0365 138.223 27.3783 137.788 26.5355C137.352 25.688 137.134 24.7055 137.134 23.5881C137.134 22.4612 137.352 21.4763 137.788 20.6335C138.223 19.786 138.841 19.1278 139.641 18.6591C140.446 18.1856 141.4 17.9489 142.504 17.9489C143.607 17.9489 144.558 18.1856 145.359 18.6591C146.164 19.1278 146.784 19.786 147.219 20.6335C147.655 21.4763 147.873 22.4612 147.873 23.5881C147.873 24.7055 147.655 25.688 147.219 26.5355C146.784 27.3783 146.164 28.0365 145.359 28.5099C144.558 28.9787 143.607 29.2131 142.504 29.2131ZM142.518 26.8693C143.02 26.8693 143.439 26.7273 143.775 26.4432C144.111 26.1544 144.364 25.7614 144.535 25.2642C144.71 24.767 144.798 24.2012 144.798 23.5668C144.798 22.9323 144.71 22.3665 144.535 21.8693C144.364 21.3722 144.111 20.9792 143.775 20.6903C143.439 20.4015 143.02 20.2571 142.518 20.2571C142.011 20.2571 141.585 20.4015 141.239 20.6903C140.898 20.9792 140.64 21.3722 140.465 21.8693C140.295 22.3665 140.21 22.9323 140.21 23.5668C140.21 24.2012 140.295 24.767 140.465 25.2642C140.64 25.7614 140.898 26.1544 141.239 26.4432C141.585 26.7273 142.011 26.8693 142.518 26.8693ZM151.609 29.1847C151.14 29.1847 150.737 29.0189 150.401 28.6875C150.07 28.3513 149.904 27.9489 149.904 27.4801C149.904 27.0161 150.07 26.6184 150.401 26.2869C150.737 25.9555 151.14 25.7898 151.609 25.7898C152.063 25.7898 152.461 25.9555 152.802 26.2869C153.143 26.6184 153.313 27.0161 153.313 27.4801C153.313 27.7926 153.233 28.0791 153.072 28.3395C152.915 28.5952 152.71 28.8011 152.454 28.9574C152.198 29.1089 151.916 29.1847 151.609 29.1847ZM151.609 21.5426C151.14 21.5426 150.737 21.3769 150.401 21.0455C150.07 20.714 149.904 20.3116 149.904 19.8381C149.904 19.3741 150.07 18.9787 150.401 18.652C150.737 18.3205 151.14 18.1548 151.609 18.1548C152.063 18.1548 152.461 18.3205 152.802 18.652C153.143 18.9787 153.313 19.3741 153.313 19.8381C153.313 20.1553 153.233 20.4441 153.072 20.7045C152.915 20.9602 152.71 21.1638 152.454 21.3153C152.198 21.4669 151.916 21.5426 151.609 21.5426Z" fill="white"/>
</svg>
