<svg width="40" height="41" viewBox="0 0 40 41" fill="none" xmlns="http://www.w3.org/2000/svg">
<g clip-path="url(#clip0_1_120)">
<path fill-rule="evenodd" clip-rule="evenodd" d="M25 3.83325C26.3542 3.83317 27.6763 4.24548 28.7904 5.01531C29.9044 5.78515 30.7577 6.876 31.2365 8.1427C31.7153 9.4094 31.797 10.7919 31.4707 12.1062C31.1444 13.4205 30.4257 14.6042 29.41 15.4999C30.6523 16.5929 31.4437 18.1089 31.6303 19.753C31.8169 21.3971 31.3855 23.0518 30.4199 24.3955C29.4543 25.7392 28.0235 26.6757 26.4057 27.0231C24.7879 27.3704 23.0988 27.1038 21.6667 26.2749V30.4999C21.6666 31.6139 21.3874 32.7101 20.8546 33.6884C20.3217 34.6667 19.5523 35.4958 18.6164 36.1001C17.6806 36.7044 16.6083 37.0645 15.4974 37.1476C14.3865 37.2307 13.2725 37.0342 12.2572 36.5758C11.2419 36.1175 10.3576 35.4121 9.68511 34.524C9.01264 33.6359 8.57344 32.5934 8.40763 31.4918C8.24182 30.3903 8.35469 29.2647 8.73592 28.218C9.11716 27.1713 9.75461 26.2368 10.59 25.4999C9.87989 24.875 9.31126 24.1057 8.92211 23.2435C8.53296 22.3812 8.33224 21.4459 8.33336 20.4999C8.33224 19.5539 8.53296 18.6186 8.92211 17.7564C9.31126 16.8942 9.87989 16.1249 10.59 15.4999C9.5744 14.6042 8.85562 13.4205 8.52934 12.1062C8.20307 10.7919 8.28478 9.4094 8.76359 8.1427C9.24241 6.876 10.0956 5.78515 11.2097 5.01531C12.3238 4.24548 13.6459 3.83317 15 3.83325H25ZM18.3334 27.1666H15C14.3408 27.1666 13.6963 27.3621 13.1481 27.7284C12.6 28.0946 12.1727 28.6152 11.9204 29.2243C11.6681 29.8334 11.6021 30.5036 11.7307 31.1502C11.8594 31.7968 12.1768 32.3908 12.643 32.8569C13.1092 33.3231 13.7031 33.6406 14.3497 33.7692C14.9963 33.8978 15.6666 33.8318 16.2756 33.5795C16.8847 33.3272 17.4053 32.9 17.7716 32.3518C18.1379 31.8037 18.3334 31.1592 18.3334 30.4999V27.1666ZM18.3334 17.1666H15C14.116 17.1666 13.2681 17.5178 12.643 18.1429C12.0179 18.768 11.6667 19.6159 11.6667 20.4999C11.6667 21.384 12.0179 22.2318 12.643 22.8569C13.2681 23.4821 14.116 23.8333 15 23.8333H18.3334V17.1666ZM25 17.1666C24.116 17.1666 23.2681 17.5178 22.643 18.1429C22.0179 18.768 21.6667 19.6159 21.6667 20.4999C21.6667 21.384 22.0179 22.2318 22.643 22.8569C23.2681 23.4821 24.116 23.8333 25 23.8333C25.8841 23.8333 26.7319 23.4821 27.3571 22.8569C27.9822 22.2318 28.3334 21.384 28.3334 20.4999C28.3334 19.6159 27.9822 18.768 27.3571 18.1429C26.7319 17.5178 25.8841 17.1666 25 17.1666ZM25 7.16659H21.6667V13.8333H25C25.865 13.8371 26.6976 13.5046 27.322 12.906C27.9463 12.3073 28.3135 11.4894 28.3459 10.625C28.3784 9.76065 28.0736 8.91751 27.4959 8.27372C26.9182 7.62994 26.1129 7.23592 25.25 7.17492L25 7.16659ZM18.3334 7.16659H15C14.116 7.16659 13.2681 7.51777 12.643 8.1429C12.0179 8.76802 11.6667 9.61586 11.6667 10.4999C11.6667 11.384 12.0179 12.2318 12.643 12.8569C13.2681 13.4821 14.116 13.8333 15 13.8333H18.3334V7.16659Z" fill="white"/>
</g>
<defs>
<clipPath id="clip0_1_120">
<rect width="40" height="40" fill="white" transform="translate(0 0.5)"/>
</clipPath>
</defs>
</svg>
