<svg width="40" height="41" viewBox="0 0 40 41" fill="none" xmlns="http://www.w3.org/2000/svg">
<path d="M13.6 14.6L14.464 13.9749C14.3318 13.7924 14.1452 13.6564 13.931 13.5864C13.7168 13.5165 13.4859 13.5162 13.2715 13.5857C13.057 13.6551 12.8701 13.7906 12.7375 13.9728C12.6049 14.1551 12.5334 14.3746 12.5333 14.6H13.6ZM20 34.8667C16.3223 34.8667 12.7953 33.4057 10.1948 30.8052C7.59428 28.2047 6.13333 24.6777 6.13333 21H4C4 25.2435 5.68571 29.3131 8.68629 32.3137C11.6869 35.3143 15.7565 37 20 37V34.8667ZM33.8667 21C33.8667 22.821 33.508 24.6242 32.8111 26.3065C32.1143 27.9889 31.0929 29.5176 29.8052 30.8052C28.5176 32.0929 26.9889 33.1143 25.3065 33.8111C23.6242 34.508 21.821 34.8667 20 34.8667V37C24.2435 37 28.3131 35.3143 31.3137 32.3137C34.3143 29.3131 36 25.2435 36 21H33.8667ZM20 7.13333C21.821 7.13333 23.6242 7.49201 25.3065 8.18887C26.9889 8.88574 28.5176 9.90715 29.8052 11.1948C31.0929 12.4824 32.1143 14.0111 32.8111 15.6935C33.508 17.3758 33.8667 19.179 33.8667 21H36C36 16.7565 34.3143 12.6869 31.3137 9.68629C28.3131 6.68571 24.2435 5 20 5V7.13333ZM20 5C15.7565 5 11.6869 6.68571 8.68629 9.68629C5.68571 12.6869 4 16.7565 4 21H6.13333C6.13333 17.3223 7.59428 13.7953 10.1948 11.1948C12.7953 8.59428 16.3223 7.13333 20 7.13333V5ZM14.6667 30.6V14.6H12.5333V30.6H14.6667ZM12.736 15.2251L26.6027 34.4251L28.3307 33.1749L14.464 13.9749L12.736 15.2251ZM25.3333 13.5333V26.3333H27.4667V13.5333H25.3333Z" fill="white"/>
</svg>
