<svg width="40" height="41" viewBox="0 0 40 41" fill="none" xmlns="http://www.w3.org/2000/svg">
<path d="M20 17.3501C21.7166 17.3501 23.1166 18.7501 23.1166 20.5001C23.1166 22.1667 21.7166 23.5834 20 23.5834C18.2833 23.5834 16.8833 22.1667 16.8833 20.5001C16.8833 18.7501 18.2833 17.3501 20 17.3501ZM12.2833 33.8334C13.3333 34.4667 15.6333 33.5001 18.2833 31.0001C17.4166 30.0167 16.5666 28.9501 15.7666 27.8334C14.4236 27.7049 13.0883 27.5046 11.7666 27.2334C10.9166 30.8001 11.2333 33.2501 12.2833 33.8334ZM13.4666 24.2667L12.9833 23.4167C12.8 23.9001 12.6166 24.3834 12.5 24.8501C12.95 24.9501 13.45 25.0334 13.9666 25.1167L13.4666 24.2667ZM24.3666 23.0001L25.7166 20.5001L24.3666 18.0001C23.8666 17.1167 23.3333 16.3334 22.85 15.5501C21.95 15.5001 21 15.5001 20 15.5001C19 15.5001 18.05 15.5001 17.15 15.5501C16.6666 16.3334 16.1333 17.1167 15.6333 18.0001L14.2833 20.5001L15.6333 23.0001C16.1333 23.8834 16.6666 24.6667 17.15 25.4501C18.05 25.5001 19 25.5001 20 25.5001C21 25.5001 21.95 25.5001 22.85 25.4501C23.3333 24.6667 23.8666 23.8834 24.3666 23.0001ZM20 11.8001C19.6833 12.1667 19.35 12.5501 19.0166 13.0001H20.9833C20.65 12.5501 20.3166 12.1667 20 11.8001ZM20 29.2001C20.3166 28.8334 20.65 28.4501 20.9833 28.0001H19.0166C19.35 28.4501 19.6833 28.8334 20 29.2001ZM27.7 7.16673C26.6666 6.5334 24.3666 7.50007 21.7166 10.0001C22.5833 10.9834 23.4333 12.0501 24.2333 13.1667C25.6 13.3001 26.95 13.5001 28.2333 13.7667C29.0833 10.2001 28.7666 7.75007 27.7 7.16673ZM26.5333 16.7334L27.0166 17.5834C27.2 17.1001 27.3833 16.6167 27.5 16.1501C27.05 16.0501 26.55 15.9667 26.0333 15.8834L26.5333 16.7334ZM28.95 4.9834C31.4 6.3834 31.6666 10.0667 30.6333 14.3667C34.8666 15.6167 37.9166 17.6834 37.9166 20.5001C37.9166 23.3167 34.8666 25.3834 30.6333 26.6334C31.6666 30.9334 31.4 34.6167 28.95 36.0167C26.5166 37.4167 23.2 35.8167 20 32.7667C16.8 35.8167 13.4833 37.4167 11.0333 36.0167C8.59998 34.6167 8.33331 30.9334 9.36665 26.6334C5.13331 25.3834 2.08331 23.3167 2.08331 20.5001C2.08331 17.6834 5.13331 15.6167 9.36665 14.3667C8.33331 10.0667 8.59998 6.3834 11.0333 4.9834C13.4833 3.5834 16.8 5.1834 20 8.2334C23.2 5.1834 26.5166 3.5834 28.95 4.9834ZM28.4666 20.5001C29.0333 21.7501 29.5333 23.0001 29.95 24.2667C33.45 23.2167 35.4166 21.7167 35.4166 20.5001C35.4166 19.2834 33.45 17.7834 29.95 16.7334C29.5333 18.0001 29.0333 19.2501 28.4666 20.5001ZM11.5333 20.5001C10.9666 19.2501 10.4666 18.0001 10.05 16.7334C6.54998 17.7834 4.58331 19.2834 4.58331 20.5001C4.58331 21.7167 6.54998 23.2167 10.05 24.2667C10.4666 23.0001 10.9666 21.7501 11.5333 20.5001ZM26.5333 24.2667L26.0333 25.1167C26.55 25.0334 27.05 24.9501 27.5 24.8501C27.3833 24.3834 27.2 23.9001 27.0166 23.4167L26.5333 24.2667ZM21.7166 31.0001C24.3666 33.5001 26.6666 34.4667 27.7 33.8334C28.7666 33.2501 29.0833 30.8001 28.2333 27.2334C26.95 27.5001 25.6 27.7001 24.2333 27.8334C23.4333 28.9501 22.5833 30.0167 21.7166 31.0001ZM13.4666 16.7334L13.9666 15.8834C13.45 15.9667 12.95 16.0501 12.5 16.1501C12.6166 16.6167 12.8 17.1001 12.9833 17.5834L13.4666 16.7334ZM18.2833 10.0001C15.6333 7.50007 13.3333 6.5334 12.2833 7.16673C11.2333 7.75007 10.9166 10.2001 11.7666 13.7667C13.0883 13.4956 14.4236 13.2953 15.7666 13.1667C16.5666 12.0501 17.4166 10.9834 18.2833 10.0001Z" fill="white"/>
</svg>
