<svg width="40" height="41" viewBox="0 0 40 41" fill="none" xmlns="http://www.w3.org/2000/svg">
<path d="M20 10.5C15.55 10.5 12.7833 12.7167 11.6666 17.1667C13.3333 14.95 15.2833 14.1167 17.5 14.6667C18.7666 14.9833 19.6833 15.9 20.6833 16.9167C22.3166 18.5833 24.1666 20.5 28.3333 20.5C32.7833 20.5 35.55 18.2833 36.6666 13.8333C35 16.05 33.05 16.8833 30.8333 16.3333C29.5666 16.0167 28.6666 15.1 27.65 14.0833C26.0166 12.4167 24.1666 10.5 20 10.5ZM11.6666 20.5C7.21665 20.5 4.44998 22.7167 3.33331 27.1667C4.99998 24.95 6.94998 24.1167 9.16665 24.6667C10.4333 24.9833 11.3333 25.9 12.35 26.9167C13.9833 28.5833 15.8333 30.5 20 30.5C24.45 30.5 27.2166 28.2833 28.3333 23.8333C26.6666 26.05 24.7166 26.8833 22.5 26.3333C21.2333 26.0167 20.3333 25.1 19.3166 24.0833C17.6833 22.4167 15.8333 20.5 11.6666 20.5Z" fill="white"/>
</svg>
