<svg width="179" height="40" viewBox="0 0 179 40" fill="none" xmlns="http://www.w3.org/2000/svg">
<g clip-path="url(#clip0_1_167)">
<mask id="mask0_1_167" style="mask-type:luminance" maskUnits="userSpaceOnUse" x="0" y="0" width="179" height="40">
<path d="M178.5 0H0V40H178.5V0Z" fill="white"/>
</mask>
<g mask="url(#mask0_1_167)">
<path d="M30.8295 15.198C27.3185 15.198 25.4518 16.4861 25.4518 20.2194V32.2171H18.1192V8.31H25.184V12.844C26.2954 10.0455 28.296 8.26725 31.7158 8.1333C32.072 8.1333 32.471 8.1333 32.8272 8.17605V15.3319C32.0264 15.2436 31.4935 15.198 30.8266 15.198" fill="white"/>
<path d="M35.7169 32.22H43.0951V8.31005H35.7169V32.22ZM35.7169 5.86775H43.0495V0H35.7169V5.86775Z" fill="white"/>
<path d="M58.792 27.1074C61.7245 27.1074 64.124 24.7078 64.124 20.265C64.124 15.8221 61.7245 13.4653 58.792 13.4653C55.8595 13.4653 53.5025 15.3319 53.5025 20.265C53.5025 25.198 55.902 27.1074 58.792 27.1074ZM61.1915 7.7771C67.3245 7.7771 71.7245 12.4422 71.7245 20.265C71.7245 28.0877 67.3245 32.7984 61.1915 32.7984C58.5695 32.7984 55.415 31.6414 53.859 29.0224V39.9999H46.5263V8.31H53.859V11.5531C55.415 8.93125 58.5695 7.7771 61.1915 7.7771Z" fill="white"/>
<path d="M81.3226 0H73.9901V32.22H81.3226V0Z" fill="white"/>
<path d="M101.195 17.6858C101.106 14.7078 98.929 13.1974 96.173 13.1974C93.597 13.1974 91.24 14.5311 90.841 17.6858H101.195ZM96.484 32.7955C88.7065 32.7955 83.3745 28.0392 83.3745 20.131C83.3745 12.2227 89.1965 7.60034 96.173 7.60034C104.084 7.60034 108.972 13.6448 108.485 22.1315H90.753C90.975 25.5086 93.597 27.1102 96.2645 27.1102C98.932 27.1102 100.796 26.1327 101.642 24.7106H108.396C106.265 30.3532 101.286 32.7984 96.4865 32.7984" fill="white"/>
<path d="M145.336 17.6858C145.247 14.7078 143.07 13.1974 140.314 13.1974C137.738 13.1974 135.381 14.5311 134.982 17.6858H145.336ZM140.625 32.7955C132.848 32.7955 127.516 28.0392 127.516 20.131C127.516 12.2227 133.338 7.60034 140.314 7.60034C148.225 7.60034 153.113 13.6448 152.623 22.1315H134.891C135.113 25.5086 137.735 27.1102 140.403 27.1102C143.07 27.1102 144.934 26.1327 145.78 24.7106H152.534C150.4 30.3532 145.424 32.7984 140.625 32.7984" fill="white"/>
<path d="M170.001 7.7771C176.134 7.7771 178.043 11.3764 178.043 17.8655V32.22H170.711V19.6893C170.711 16.2667 170.577 13.4682 167.023 13.4682C163.914 13.4682 162.58 15.5571 162.58 19.9572V32.2228H155.247V8.31H162.58V11.4648C163.646 9.68645 166.268 7.7771 170.001 7.7771Z" fill="white"/>
<path d="M118.448 26.0701L118.439 13.5081H125.74V8.31008H118.439V1.77832H111.106V19.0681C111.106 22.0604 111.317 26.0701 117.057 26.0701C117.057 27.1103 118.225 32.6931 126.57 32.1858V26.0701H118.448Z" fill="white"/>
<path d="M7.34116 26.0701L7.33261 13.5081H14.6339V8.31008H7.33261V1.77832H0V19.0681C0 22.0604 0.210888 26.0701 5.95045 26.0701C5.95045 27.1103 7.11885 32.6931 15.4632 32.1858V26.0701H7.34116Z" fill="white"/>
</g>
</g>
<defs>
<clipPath id="clip0_1_167">
<rect width="178.5" height="40" fill="white"/>
</clipPath>
</defs>
</svg>
