<svg width="40" height="41" viewBox="0 0 40 41" fill="none" xmlns="http://www.w3.org/2000/svg">
<path fill-rule="evenodd" clip-rule="evenodd" d="M4 4.5H36V36.5H4V4.5ZM25.3333 17.3C24.2017 17.3 23.1165 17.7495 22.3163 18.5497C21.5162 19.3498 21.0667 20.4351 21.0667 21.5667C21.0667 22.6983 21.5162 23.7835 22.3163 24.5837C23.1165 25.3838 24.2017 25.8333 25.3333 25.8333H27.4667C28.0325 25.8333 28.5751 26.0581 28.9752 26.4582C29.3752 26.8583 29.6 27.4009 29.6 27.9667C29.6 28.5325 29.3752 29.0751 28.9752 29.4752C28.5751 29.8752 28.0325 30.1 27.4667 30.1H25.3333C24.7675 30.1 24.2249 29.8752 23.8248 29.4752C23.4248 29.0751 23.2 28.5325 23.2 27.9667H21.0667C21.0667 29.0983 21.5162 30.1835 22.3163 30.9837C23.1165 31.7838 24.2017 32.2333 25.3333 32.2333H27.4667C28.5983 32.2333 29.6835 31.7838 30.4837 30.9837C31.2838 30.1835 31.7333 29.0983 31.7333 27.9667C31.7333 26.8351 31.2838 25.7498 30.4837 24.9497C29.6835 24.1495 28.5983 23.7 27.4667 23.7H25.3333C24.7675 23.7 24.2249 23.4752 23.8248 23.0752C23.4248 22.6751 23.2 22.1325 23.2 21.5667C23.2 21.0009 23.4248 20.4583 23.8248 20.0582C24.2249 19.6581 24.7675 19.4333 25.3333 19.4333H27.8229C28.8043 19.4333 29.6 20.2291 29.6 21.2104V21.5667H31.7333V21.2104C31.7333 19.0515 29.984 17.3 27.8229 17.3H25.3333ZM10.4 17.3H21.0667V19.4333H16.8V32.2333H14.6667V19.4333H10.4V17.3Z" fill="white"/>
</svg>
